<svg id="圖層_1" data-name="圖層 1" xmlns="http://www.w3.org/2000/svg" viewBox="0 0 216.53 154.19"><defs><style>.cls-1{fill:#fff;}</style></defs><path class="cls-1" d="M75,135.08c.74.81,1.46,1.65,2.24,2.43,7.39,7.41,14.83,14.78,22.18,22.24,4.41,4.46,4.63,10.23.71,14.09S90.48,177.48,86,173q-20.34-20.26-40.61-40.6c-5-5.08-5.09-10-.1-15Q65.68,96.93,86.16,76.57C90.59,72.16,96.35,72,100.25,76c3.74,3.84,3.51,9.53-.74,13.86-7.36,7.45-14.8,14.82-22.2,22.23-.83.84-1.59,1.73-3.08,3.37h4.9c40.43,0,80.86-.07,121.29,0,24.15.06,41.83,11,52.45,32.65,14.86,30.3-3.27,69-36.06,77.07a66.63,66.63,0,0,1-15.33,2c-25.34.2-50.68.11-76,.08-5.74,0-9.28-2.53-10.4-7.2a9.35,9.35,0,0,1,8.31-11.58c1.56-.14,3.15-.07,4.72-.07,24.55,0,49.11.08,73.66,0,17.24-.08,32-11.4,36-27.29,6-23.69-10.45-45.79-34.88-46.81-4.27-.17-8.56-.06-12.84-.06H75.28Z" transform="translate(-41.59 -73.14)"/></svg>