<svg id="圖層_1" data-name="圖層 1" xmlns="http://www.w3.org/2000/svg" viewBox="0 0 128.41 128.42"><defs><style>.cls-1{opacity:0.5;}.cls-2{fill:#757575;}</style></defs><g class="cls-1"><path class="cls-2" d="M149.93,214.66a64.21,64.21,0,1,1,64.21-64.21A64.28,64.28,0,0,1,149.93,214.66Zm0-122.53a58.33,58.33,0,1,0,58.32,58.32A58.39,58.39,0,0,0,149.93,92.13Z" transform="translate(-85.72 -86.24)"/><path class="cls-2" d="M164.86,177.69c-.34,1.3-.59,2.43-.93,3.53a1.09,1.09,0,0,1-.66.56,78.49,78.49,0,0,1-8.71,2.87c-4.11.89-8.25.84-11.95-1.73a8.29,8.29,0,0,1-3.71-7.76c.28-5.52,2.46-10.58,3.77-15.86a73.56,73.56,0,0,0,2-9.34c.39-3.27-1.3-4.83-4.6-4.61a57,57,0,0,0-5.83,1c.28-1.12.58-2.35.93-3.56a1,1,0,0,1,.58-.5c4.71-1.67,9.32-3.62,14.5-3.31,4.41.27,8.47,2.92,9.15,6.85a19.67,19.67,0,0,1-.3,7.6c-1.28,5.52-3,10.93-4.47,16.41a24.8,24.8,0,0,0-.68,4.94,3.31,3.31,0,0,0,2.94,3.74,13,13,0,0,0,7.18-.61C164.24,177.84,164.45,177.8,164.86,177.69Z" transform="translate(-85.72 -86.24)"/><path class="cls-2" d="M165.63,123.76A7.89,7.89,0,0,1,160.7,131a9.41,9.41,0,0,1-10.87-2.15c-3.08-3.39-2.44-8.48,1.41-11.33,5.1-3.77,12.82-1.26,14.18,4.61A13.5,13.5,0,0,1,165.63,123.76Z" transform="translate(-85.72 -86.24)"/></g></svg>