<svg id="圖層_1" data-name="圖層 1" xmlns="http://www.w3.org/2000/svg" viewBox="0 0 142.81 109.91"><defs><style>.cls-1{fill:#fff;}</style></defs><path class="cls-1" d="M219.93,105.63a6.86,6.86,0,0,1-.56.77l-48.76,55.33a27.56,27.56,0,0,1-41.36,0l-49.37-56a16.82,16.82,0,0,0-1.35,6.63v63.42a29.64,29.64,0,0,0,29.63,29.64h83.53a29.64,29.64,0,0,0,29.64-29.64V112.35A16.73,16.73,0,0,0,219.93,105.63Z" transform="translate(-78.53 -95.5)"/><path class="cls-1" d="M140.32,151.93a12.75,12.75,0,0,0,19.13,0L208.21,96.6c.17-.19.38-.35.56-.52a16.69,16.69,0,0,0-4.33-.58H95.34a16.58,16.58,0,0,0-4.26.56Z" transform="translate(-78.53 -95.5)"/></svg>