<svg id="圖層_1" data-name="圖層 1" xmlns="http://www.w3.org/2000/svg" viewBox="0 0 146.03 120.75"><defs><style>.cls-1{fill:#fff;}</style></defs><path class="cls-1" d="M86.41,143s64.59-26.5,87-35.84c8.58-3.73,37.7-15.68,37.7-15.68s13.44-5.22,12.32,7.47c-.37,5.23-3.36,23.52-6.34,43.31-4.48,28-9.34,58.61-9.34,58.61s-.74,8.59-7.09,10.08-16.8-5.23-18.67-6.72c-1.49-1.12-28-17.92-37.7-26.14-2.62-2.23-5.6-6.71.37-11.94,13.44-12.32,29.49-27.63,39.2-37.33,4.48-4.48,9-14.94-9.71-2.24C147.64,144.83,121.5,162,121.5,162s-6,3.74-17.17.38-24.27-7.84-24.27-7.84-9-5.6,6.35-11.58Z" transform="translate(-77.46 -90.38)"/></svg>